<svg width="81" height="66" viewBox="0 0 81 66" fill="none" xmlns="http://www.w3.org/2000/svg">
<path id="Vector" d="M47.2318 61.8435C68.9582 55.4566 84.2054 42.2451 80.0718 28.1838C78.3003 22.1576 72.0698 13.0774 56.5959 8.89685C60.0064 14.4413 50.763 19.3409 50.763 19.3409C52.7274 7.85171 35.482 -2.3551 15.2237 1.41785C19.9262 8.76484 23.2258 16.5243 9.19796 29.3773C2.18406 35.8039 -0.690905 44.1956 1.40068 51.3106C5.53423 65.3719 25.5055 68.2303 47.2318 61.8435ZM46.0508 57.826C35.1877 61.0194 25.202 59.5902 23.1352 52.5595C22.2495 49.5464 22.4122 44.0427 27.7871 38.098C27.8534 41.352 34.1803 41.6744 34.1803 41.6744C30.2456 37.3753 33.62 27.6539 43.1586 23.7587C43.1661 28.1212 43.8817 32.2755 53.2576 33.884C57.9456 34.6882 61.4244 37.4366 62.4708 40.9961C64.5376 48.0268 56.914 54.6326 46.0508 57.826Z" fill="#F98B0E"/>
</svg>
